<?xml version="1.0" encoding="UTF-8" standalone="no"?>
<!DOCTYPE svg PUBLIC "-//W3C//DTD SVG 1.1//EN" "http://www.w3.org/Graphics/SVG/1.1/DTD/svg11.dtd">
<svg width="100%" height="100%" viewBox="0 0 32 32" version="1.1" xmlns="http://www.w3.org/2000/svg" xmlns:xlink="http://www.w3.org/1999/xlink" xml:space="preserve" xmlns:serif="http://www.serif.com/" style="fill-rule:evenodd;clip-rule:evenodd;stroke-linejoin:round;stroke-miterlimit:2;">
    <g transform="matrix(1.6,0,0,1.6,-3.2,-3.2)">
        <path d="M12,2C6.48,2 2,6.48 2,12C2,17.52 6.48,22 12,22C17.52,22 22,17.52 22,12C22,6.48 17.52,2 12,2ZM12,20C7.59,20 4,16.41 4,12C4,7.59 7.59,4 12,4C16.41,4 20,7.59 20,12C20,16.41 16.41,20 12,20Z" style="fill:rgb(16,185,129);fill-rule:nonzero;"/>
    </g>
    <g transform="matrix(1.6,0,0,1.6,-3.2,-3.2)">
        <path d="M11.5,8.5L10.5,8.5L10.5,7L13.5,7L13.5,8.5L12.5,8.5L12.5,11.5L14.5,11.5C15.33,11.5 16,12.17 16,13L16,15.5C16,16.33 15.33,17 14.5,17L13.5,17L13.5,18.5L10.5,18.5L10.5,17L11.5,17L11.5,14L9.5,14C8.67,14 8,13.33 8,12.5L8,10C8,9.17 8.67,8.5 9.5,8.5L11.5,8.5ZM10,10L10,12.5L12,12.5L12,10L10,10ZM12,14L12,16.5L14,16.5L14,14L12,14Z" style="fill:rgb(52,211,153);fill-rule:nonzero;"/>
    </g>
</svg>
