<svg width="32" height="32" viewBox="0 0 24 24" fill="none" xmlns="http://www.w3.org/2000/svg">
  <path d="M12 2C6.48 2 2 6.48 2 12C2 17.52 6.48 22 12 22C17.52 22 22 17.52 22 12C22 6.48 17.52 2 12 2ZM12 20C7.59 20 4 16.41 4 12C4 7.59 7.59 4 12 4C16.41 4 20 7.59 20 12C20 16.41 16.41 20 12 20Z" fill="#10B981"/>
  <path d="M11.5 8.5H10.5V7H13.5V8.5H12.5V11.5H14.5C15.33 11.5 16 12.17 16 13V15.5C16 16.33 15.33 17 14.5 17H13.5V18.5H10.5V17H11.5V14H9.5C8.67 14 8 13.33 8 12.5V10C8 9.17 8.67 8.5 9.5 8.5H11.5V8.5ZM10 10V12.5H12V10H10ZM12 14V16.5H14V14H12Z" fill="#34D399"/>
</svg>
